<?xml version="1.0" encoding="UTF-8"?>
<svg xmlns="http://www.w3.org/2000/svg" xmlns:xlink="http://www.w3.org/1999/xlink" width="116px" height="27px" viewBox="0 0 116 27" version="1.1">
<g id="surface1">
<path style=" stroke:none;fill-rule:nonzero;fill:rgb(100%,100%,100%);fill-opacity:1;" d="M 1.871094 22.125 L 0.195312 19.664062 L 1.40625 19.664062 L 2.542969 21.425781 L 3.691406 19.664062 L 4.894531 19.664062 L 3.210938 22.125 L 4.980469 24.695312 L 3.777344 24.695312 L 2.542969 22.8125 L 1.316406 24.695312 L 0.113281 24.695312 Z M 1.871094 22.125 "/>
<path style=" stroke:none;fill-rule:nonzero;fill:rgb(100%,100%,100%);fill-opacity:1;" d="M 5.097656 19.664062 L 6.253906 19.664062 L 7.269531 22.519531 C 7.421875 22.925781 7.527344 23.304688 7.578125 23.664062 L 7.613281 23.664062 C 7.640625 23.496094 7.691406 23.296875 7.761719 23.058594 C 7.835938 22.820312 8.21875 21.6875 8.910156 19.664062 L 10.058594 19.664062 L 7.921875 25.363281 C 7.53125 26.410156 6.882812 26.933594 5.976562 26.933594 C 5.742188 26.933594 5.511719 26.910156 5.289062 26.855469 L 5.289062 26.011719 C 5.449219 26.046875 5.632812 26.066406 5.835938 26.066406 C 6.347656 26.066406 6.710938 25.765625 6.917969 25.167969 L 7.101562 24.695312 Z M 5.097656 19.664062 "/>
<path style=" stroke:none;fill-rule:nonzero;fill:rgb(100%,100%,100%);fill-opacity:1;" d="M 15.609375 26.476562 L 14.621094 26.476562 L 14.621094 24.695312 L 11.195312 24.695312 L 11.195312 26.476562 L 10.214844 26.476562 L 10.214844 23.867188 L 10.621094 23.867188 C 10.976562 23.355469 11.257812 22.738281 11.46875 22.011719 C 11.679688 21.285156 11.804688 20.503906 11.84375 19.664062 L 14.878906 19.664062 L 14.878906 23.867188 L 15.609375 23.867188 Z M 13.835938 23.867188 L 13.835938 20.484375 L 12.757812 20.484375 C 12.703125 21.109375 12.582031 21.726562 12.398438 22.332031 C 12.21875 22.9375 11.996094 23.449219 11.734375 23.867188 Z M 13.835938 23.867188 "/>
<path style=" stroke:none;fill-rule:nonzero;fill:rgb(100%,100%,100%);fill-opacity:1;" d="M 20.96875 22.171875 C 20.96875 22.992188 20.757812 23.636719 20.339844 24.097656 C 19.921875 24.558594 19.339844 24.789062 18.59375 24.789062 C 18.125 24.789062 17.710938 24.679688 17.355469 24.46875 C 16.996094 24.257812 16.71875 23.953125 16.527344 23.554688 C 16.335938 23.15625 16.238281 22.695312 16.238281 22.171875 C 16.238281 21.355469 16.445312 20.71875 16.863281 20.261719 C 17.277344 19.804688 17.863281 19.574219 18.621094 19.574219 C 19.34375 19.574219 19.914062 19.808594 20.335938 20.28125 C 20.757812 20.746094 20.96875 21.378906 20.96875 22.171875 Z M 17.332031 22.171875 C 17.332031 23.332031 17.757812 23.914062 18.609375 23.914062 C 19.453125 23.914062 19.875 23.332031 19.875 22.171875 C 19.875 21.023438 19.449219 20.449219 18.601562 20.449219 C 18.15625 20.449219 17.832031 20.597656 17.628906 20.894531 C 17.429688 21.191406 17.332031 21.617188 17.332031 22.171875 Z M 17.332031 22.171875 "/>
<path style=" stroke:none;fill-rule:nonzero;fill:rgb(100%,100%,100%);fill-opacity:1;" d="M 24.65625 22.109375 L 24.65625 19.664062 L 25.644531 19.664062 L 25.644531 22.109375 L 27.570312 19.664062 L 28.691406 19.664062 L 26.726562 22.097656 L 28.867188 24.695312 L 27.695312 24.695312 L 25.644531 22.144531 L 25.644531 24.695312 L 24.65625 24.695312 L 24.65625 22.144531 L 22.609375 24.695312 L 21.441406 24.695312 L 23.582031 22.097656 L 21.621094 19.664062 L 22.738281 19.664062 Z M 24.65625 22.109375 "/>
<path style=" stroke:none;fill-rule:nonzero;fill:rgb(100%,100%,100%);fill-opacity:1;" d="M 31.820312 24.789062 C 31.042969 24.789062 30.4375 24.558594 29.996094 24.105469 C 29.558594 23.648438 29.339844 23.019531 29.339844 22.21875 C 29.339844 21.394531 29.542969 20.75 29.949219 20.28125 C 30.359375 19.808594 30.917969 19.574219 31.628906 19.574219 C 32.285156 19.574219 32.808594 19.777344 33.191406 20.179688 C 33.574219 20.582031 33.765625 21.136719 33.765625 21.84375 L 33.765625 22.421875 L 30.433594 22.421875 C 30.449219 22.910156 30.582031 23.285156 30.828125 23.550781 C 31.074219 23.8125 31.421875 23.941406 31.871094 23.941406 C 32.167969 23.941406 32.441406 23.914062 32.695312 23.859375 C 32.949219 23.800781 33.222656 23.707031 33.515625 23.578125 L 33.515625 24.445312 C 33.257812 24.570312 32.996094 24.660156 32.730469 24.710938 C 32.464844 24.761719 32.160156 24.789062 31.820312 24.789062 Z M 31.628906 20.382812 C 31.289062 20.382812 31.019531 20.492188 30.8125 20.707031 C 30.613281 20.921875 30.492188 21.238281 30.453125 21.648438 L 32.71875 21.648438 C 32.714844 21.234375 32.613281 20.917969 32.421875 20.707031 C 32.230469 20.492188 31.964844 20.382812 31.628906 20.382812 Z M 31.628906 20.382812 "/>
<path style=" stroke:none;fill-rule:nonzero;fill:rgb(100%,100%,100%);fill-opacity:1;" d="M 36.984375 24.789062 C 36.230469 24.789062 35.652344 24.566406 35.257812 24.125 C 34.867188 23.675781 34.671875 23.039062 34.671875 22.207031 C 34.671875 21.363281 34.878906 20.710938 35.285156 20.257812 C 35.699219 19.800781 36.292969 19.574219 37.070312 19.574219 C 37.597656 19.574219 38.074219 19.671875 38.496094 19.871094 L 38.175781 20.730469 C 37.726562 20.554688 37.355469 20.464844 37.0625 20.464844 C 36.199219 20.464844 35.765625 21.042969 35.765625 22.199219 C 35.765625 22.761719 35.871094 23.1875 36.085938 23.472656 C 36.304688 23.753906 36.621094 23.894531 37.035156 23.894531 C 37.507812 23.894531 37.957031 23.777344 38.378906 23.542969 L 38.378906 24.472656 C 38.1875 24.585938 37.984375 24.667969 37.765625 24.714844 C 37.554688 24.761719 37.292969 24.789062 36.984375 24.789062 Z M 36.984375 24.789062 "/>
<path style=" stroke:none;fill-rule:nonzero;fill:rgb(100%,100%,100%);fill-opacity:1;" d="M 43.304688 19.664062 L 43.304688 20.503906 L 41.679688 20.503906 L 41.679688 24.695312 L 40.613281 24.695312 L 40.613281 20.503906 L 38.988281 20.503906 L 38.988281 19.664062 Z M 43.304688 19.664062 "/>
<path style=" stroke:none;fill-rule:nonzero;fill:rgb(100%,100%,100%);fill-opacity:1;" d="M 48.605469 20.953125 C 48.605469 21.546875 48.261719 21.90625 47.570312 22.03125 L 47.570312 22.066406 C 47.957031 22.113281 48.253906 22.234375 48.457031 22.4375 C 48.660156 22.636719 48.765625 22.894531 48.765625 23.214844 C 48.765625 23.691406 48.582031 24.058594 48.222656 24.3125 C 47.863281 24.570312 47.339844 24.695312 46.65625 24.695312 L 44.269531 24.695312 L 44.269531 19.664062 L 46.644531 19.664062 C 47.953125 19.664062 48.605469 20.09375 48.605469 20.953125 Z M 47.675781 23.148438 C 47.675781 22.90625 47.582031 22.734375 47.394531 22.636719 C 47.207031 22.53125 46.929688 22.480469 46.554688 22.480469 L 45.332031 22.480469 L 45.332031 23.90625 L 46.582031 23.90625 C 47.3125 23.90625 47.675781 23.652344 47.675781 23.148438 Z M 47.542969 21.042969 C 47.542969 20.84375 47.464844 20.699219 47.308594 20.613281 C 47.15625 20.519531 46.925781 20.476562 46.617188 20.476562 L 45.332031 20.476562 L 45.332031 21.683594 L 46.460938 21.683594 C 46.816406 21.683594 47.085938 21.640625 47.269531 21.550781 C 47.453125 21.453125 47.542969 21.285156 47.542969 21.042969 Z M 47.542969 21.042969 "/>
<path style=" stroke:none;fill-rule:nonzero;fill:rgb(100%,100%,100%);fill-opacity:1;" d="M 52.042969 24.789062 C 51.265625 24.789062 50.660156 24.558594 50.21875 24.105469 C 49.78125 23.648438 49.5625 23.019531 49.5625 22.21875 C 49.5625 21.394531 49.765625 20.75 50.175781 20.28125 C 50.582031 19.808594 51.140625 19.574219 51.851562 19.574219 C 52.511719 19.574219 53.03125 19.777344 53.414062 20.179688 C 53.796875 20.582031 53.988281 21.136719 53.988281 21.84375 L 53.988281 22.421875 L 50.65625 22.421875 C 50.671875 22.910156 50.804688 23.285156 51.050781 23.550781 C 51.296875 23.8125 51.644531 23.941406 52.09375 23.941406 C 52.390625 23.941406 52.664062 23.914062 52.917969 23.859375 C 53.171875 23.800781 53.445312 23.707031 53.738281 23.578125 L 53.738281 24.445312 C 53.480469 24.570312 53.21875 24.660156 52.953125 24.710938 C 52.6875 24.761719 52.386719 24.789062 52.042969 24.789062 Z M 51.851562 20.382812 C 51.511719 20.382812 51.242188 20.492188 51.035156 20.707031 C 50.835938 20.921875 50.714844 21.238281 50.675781 21.648438 L 52.945312 21.648438 C 52.9375 21.234375 52.839844 20.917969 52.644531 20.707031 C 52.453125 20.492188 52.1875 20.382812 51.851562 20.382812 Z M 51.851562 20.382812 "/>
<path style=" stroke:none;fill-rule:nonzero;fill:rgb(100%,100%,100%);fill-opacity:1;" d="M 56.253906 19.664062 L 56.253906 21.683594 L 58.609375 21.683594 L 58.609375 19.664062 L 59.671875 19.664062 L 59.671875 24.695312 L 58.609375 24.695312 L 58.609375 22.527344 L 56.253906 22.527344 L 56.253906 24.695312 L 55.195312 24.695312 L 55.195312 19.664062 Z M 56.253906 19.664062 "/>
<path style=" stroke:none;fill-rule:nonzero;fill:rgb(100%,100%,100%);fill-opacity:1;" d="M 62.253906 19.664062 L 62.253906 21.683594 L 64.609375 21.683594 L 64.609375 19.664062 L 65.671875 19.664062 L 65.671875 24.695312 L 64.609375 24.695312 L 64.609375 22.527344 L 62.253906 22.527344 L 62.253906 24.695312 L 61.195312 24.695312 L 61.195312 19.664062 Z M 62.253906 19.664062 "/>
<path style=" stroke:none;fill-rule:nonzero;fill:rgb(100%,100%,100%);fill-opacity:1;" d="M 70.320312 24.695312 L 70.109375 23.996094 L 70.070312 23.996094 C 69.832031 24.300781 69.589844 24.511719 69.34375 24.625 C 69.101562 24.734375 68.789062 24.789062 68.40625 24.789062 C 67.914062 24.789062 67.53125 24.652344 67.253906 24.386719 C 66.980469 24.121094 66.839844 23.742188 66.839844 23.253906 C 66.839844 22.734375 67.03125 22.34375 67.414062 22.082031 C 67.796875 21.816406 68.382812 21.671875 69.164062 21.648438 L 70.027344 21.621094 L 70.027344 21.351562 C 70.027344 21.03125 69.953125 20.792969 69.800781 20.632812 C 69.652344 20.472656 69.421875 20.394531 69.109375 20.394531 C 68.855469 20.394531 68.609375 20.429688 68.371094 20.507812 C 68.136719 20.582031 67.914062 20.671875 67.695312 20.777344 L 67.351562 20.011719 C 67.625 19.867188 67.917969 19.761719 68.242188 19.6875 C 68.566406 19.613281 68.867188 19.574219 69.15625 19.574219 C 69.789062 19.574219 70.269531 19.714844 70.589844 19.992188 C 70.917969 20.273438 71.078125 20.710938 71.078125 21.308594 L 71.078125 24.695312 Z M 68.738281 23.96875 C 69.125 23.96875 69.433594 23.859375 69.664062 23.644531 C 69.902344 23.425781 70.019531 23.121094 70.019531 22.730469 L 70.019531 22.292969 L 69.375 22.320312 C 68.875 22.339844 68.511719 22.425781 68.28125 22.578125 C 68.058594 22.726562 67.945312 22.953125 67.945312 23.265625 C 67.945312 23.488281 68.011719 23.664062 68.144531 23.785156 C 68.273438 23.90625 68.472656 23.96875 68.738281 23.96875 Z M 68.738281 23.96875 "/>
<path style=" stroke:none;fill-rule:nonzero;fill:rgb(100%,100%,100%);fill-opacity:1;" d="M 73.070312 24.695312 L 71.882812 24.695312 L 73.273438 22.636719 C 72.9375 22.539062 72.671875 22.367188 72.480469 22.117188 C 72.289062 21.867188 72.191406 21.554688 72.191406 21.183594 C 72.191406 20.710938 72.359375 20.335938 72.695312 20.070312 C 73.035156 19.800781 73.496094 19.664062 74.078125 19.664062 L 76.355469 19.664062 L 76.355469 24.695312 L 75.289062 24.695312 L 75.289062 22.757812 L 74.28125 22.757812 Z M 73.226562 21.195312 C 73.226562 21.453125 73.320312 21.644531 73.515625 21.777344 C 73.710938 21.902344 73.972656 21.96875 74.300781 21.96875 L 75.289062 21.96875 L 75.289062 20.476562 L 74.132812 20.476562 C 73.84375 20.476562 73.621094 20.539062 73.460938 20.660156 C 73.304688 20.785156 73.226562 20.964844 73.226562 21.195312 Z M 73.226562 21.195312 "/>
<path style=" stroke:none;fill-rule:nonzero;fill:rgb(100%,100%,100%);fill-opacity:1;" d="M 83.507812 19.664062 L 83.507812 20.503906 L 81.339844 20.503906 L 81.339844 24.695312 L 80.277344 24.695312 L 80.277344 19.664062 Z M 83.507812 19.664062 "/>
<path style=" stroke:none;fill-rule:nonzero;fill:rgb(100%,100%,100%);fill-opacity:1;" d="M 87.597656 24.695312 L 87.386719 23.996094 L 87.347656 23.996094 C 87.109375 24.300781 86.867188 24.511719 86.621094 24.625 C 86.378906 24.734375 86.066406 24.789062 85.683594 24.789062 C 85.191406 24.789062 84.808594 24.652344 84.53125 24.386719 C 84.257812 24.121094 84.117188 23.742188 84.117188 23.253906 C 84.117188 22.734375 84.308594 22.34375 84.691406 22.082031 C 85.074219 21.816406 85.660156 21.671875 86.441406 21.648438 L 87.304688 21.621094 L 87.304688 21.351562 C 87.304688 21.03125 87.230469 20.792969 87.078125 20.632812 C 86.929688 20.472656 86.699219 20.394531 86.386719 20.394531 C 86.132812 20.394531 85.886719 20.429688 85.652344 20.507812 C 85.414062 20.582031 85.191406 20.671875 84.972656 20.777344 L 84.628906 20.011719 C 84.902344 19.867188 85.199219 19.761719 85.519531 19.6875 C 85.84375 19.613281 86.144531 19.574219 86.433594 19.574219 C 87.066406 19.574219 87.546875 19.714844 87.867188 19.992188 C 88.195312 20.273438 88.355469 20.710938 88.355469 21.308594 L 88.355469 24.695312 Z M 86.015625 23.96875 C 86.402344 23.96875 86.710938 23.859375 86.941406 23.644531 C 87.175781 23.425781 87.296875 23.121094 87.296875 22.730469 L 87.296875 22.292969 L 86.652344 22.320312 C 86.152344 22.339844 85.789062 22.425781 85.558594 22.578125 C 85.335938 22.726562 85.222656 22.953125 85.222656 23.265625 C 85.222656 23.488281 85.289062 23.664062 85.421875 23.785156 C 85.554688 23.90625 85.75 23.96875 86.015625 23.96875 Z M 86.015625 23.96875 "/>
<path style=" stroke:none;fill-rule:nonzero;fill:rgb(100%,100%,100%);fill-opacity:1;" d="M 93.945312 24.695312 L 92.875 24.695312 L 92.875 20.503906 L 91.496094 20.503906 C 91.414062 21.582031 91.296875 22.425781 91.152344 23.03125 C 91.011719 23.636719 90.824219 24.082031 90.59375 24.359375 C 90.363281 24.640625 90.066406 24.777344 89.699219 24.777344 C 89.46875 24.777344 89.273438 24.746094 89.117188 24.679688 L 89.117188 23.839844 C 89.226562 23.882812 89.339844 23.90625 89.449219 23.90625 C 89.757812 23.90625 90 23.558594 90.171875 22.863281 C 90.351562 22.167969 90.488281 21.101562 90.589844 19.664062 L 93.945312 19.664062 Z M 93.945312 24.695312 "/>
<path style=" stroke:none;fill-rule:nonzero;fill:rgb(100%,100%,100%);fill-opacity:1;" d="M 97.652344 24.789062 C 96.875 24.789062 96.265625 24.558594 95.824219 24.105469 C 95.390625 23.648438 95.171875 23.019531 95.171875 22.21875 C 95.171875 21.394531 95.375 20.75 95.78125 20.28125 C 96.1875 19.808594 96.746094 19.574219 97.457031 19.574219 C 98.117188 19.574219 98.636719 19.777344 99.019531 20.179688 C 99.402344 20.582031 99.59375 21.136719 99.59375 21.84375 L 99.59375 22.421875 L 96.265625 22.421875 C 96.277344 22.910156 96.410156 23.285156 96.65625 23.550781 C 96.902344 23.8125 97.25 23.941406 97.699219 23.941406 C 97.996094 23.941406 98.269531 23.914062 98.523438 23.859375 C 98.777344 23.800781 99.054688 23.707031 99.34375 23.578125 L 99.34375 24.445312 C 99.085938 24.570312 98.824219 24.660156 98.558594 24.710938 C 98.292969 24.761719 97.992188 24.789062 97.652344 24.789062 Z M 97.457031 20.382812 C 97.121094 20.382812 96.847656 20.492188 96.644531 20.707031 C 96.441406 20.921875 96.320312 21.238281 96.28125 21.648438 L 98.550781 21.648438 C 98.542969 21.234375 98.445312 20.917969 98.253906 20.707031 C 98.058594 20.492188 97.792969 20.382812 97.457031 20.382812 Z M 97.457031 20.382812 "/>
<path style=" stroke:none;fill-rule:nonzero;fill:rgb(100%,100%,100%);fill-opacity:1;" d="M 103.335938 24.789062 C 102.703125 24.789062 102.210938 24.558594 101.863281 24.101562 L 101.796875 24.101562 C 101.839844 24.523438 101.863281 24.78125 101.863281 24.875 L 101.863281 26.933594 L 100.800781 26.933594 L 100.800781 19.664062 L 101.660156 19.664062 C 101.683594 19.761719 101.730469 19.984375 101.808594 20.339844 L 101.863281 20.339844 C 102.191406 19.828125 102.691406 19.574219 103.351562 19.574219 C 103.976562 19.574219 104.460938 19.800781 104.808594 20.257812 C 105.15625 20.710938 105.332031 21.351562 105.332031 22.171875 C 105.332031 22.992188 105.15625 23.636719 104.796875 24.097656 C 104.445312 24.558594 103.957031 24.789062 103.335938 24.789062 Z M 103.078125 20.449219 C 102.65625 20.449219 102.347656 20.574219 102.152344 20.820312 C 101.957031 21.070312 101.863281 21.46875 101.863281 22.011719 L 101.863281 22.171875 C 101.863281 22.785156 101.957031 23.230469 102.152344 23.503906 C 102.34375 23.777344 102.660156 23.914062 103.09375 23.914062 C 103.460938 23.914062 103.746094 23.761719 103.945312 23.460938 C 104.144531 23.15625 104.242188 22.722656 104.242188 22.164062 C 104.242188 21.597656 104.144531 21.171875 103.945312 20.886719 C 103.75 20.59375 103.460938 20.449219 103.078125 20.449219 Z M 103.078125 20.449219 "/>
<path style=" stroke:none;fill-rule:nonzero;fill:rgb(100%,100%,100%);fill-opacity:1;" d="M 108.746094 24.789062 C 107.96875 24.789062 107.363281 24.558594 106.921875 24.105469 C 106.484375 23.648438 106.265625 23.019531 106.265625 22.21875 C 106.265625 21.394531 106.46875 20.75 106.875 20.28125 C 107.285156 19.808594 107.84375 19.574219 108.554688 19.574219 C 109.214844 19.574219 109.734375 19.777344 110.117188 20.179688 C 110.5 20.582031 110.691406 21.136719 110.691406 21.84375 L 110.691406 22.421875 L 107.359375 22.421875 C 107.375 22.910156 107.507812 23.285156 107.753906 23.550781 C 108 23.8125 108.347656 23.941406 108.796875 23.941406 C 109.09375 23.941406 109.367188 23.914062 109.621094 23.859375 C 109.875 23.800781 110.148438 23.707031 110.441406 23.578125 L 110.441406 24.445312 C 110.183594 24.570312 109.921875 24.660156 109.65625 24.710938 C 109.390625 24.761719 109.085938 24.789062 108.746094 24.789062 Z M 108.554688 20.382812 C 108.214844 20.382812 107.945312 20.492188 107.738281 20.707031 C 107.539062 20.921875 107.417969 21.238281 107.378906 21.648438 L 109.648438 21.648438 C 109.640625 21.234375 109.539062 20.917969 109.347656 20.707031 C 109.15625 20.492188 108.890625 20.382812 108.554688 20.382812 Z M 108.554688 20.382812 "/>
<path style=" stroke:none;fill-rule:nonzero;fill:rgb(100%,100%,100%);fill-opacity:1;" d="M 112.40625 24.695312 L 111.21875 24.695312 L 112.609375 22.636719 C 112.273438 22.539062 112.007812 22.367188 111.816406 22.117188 C 111.621094 21.867188 111.527344 21.554688 111.527344 21.183594 C 111.527344 20.710938 111.695312 20.335938 112.03125 20.070312 C 112.371094 19.800781 112.832031 19.664062 113.414062 19.664062 L 115.691406 19.664062 L 115.691406 24.695312 L 114.625 24.695312 L 114.625 22.757812 L 113.617188 22.757812 Z M 112.5625 21.195312 C 112.5625 21.453125 112.65625 21.644531 112.851562 21.777344 C 113.046875 21.902344 113.308594 21.96875 113.636719 21.96875 L 114.625 21.96875 L 114.625 20.476562 L 113.46875 20.476562 C 113.179688 20.476562 112.957031 20.539062 112.796875 20.660156 C 112.640625 20.785156 112.5625 20.964844 112.5625 21.195312 Z M 112.5625 21.195312 "/>
<path style=" stroke:none;fill-rule:nonzero;fill:rgb(100%,100%,100%);fill-opacity:1;" d="M 0 14.578125 L 7.820312 14.578125 C 10.902344 14.578125 12.480469 13.171875 12.480469 10.496094 L 12.480469 10.457031 C 12.480469 8.464844 11.476562 7.257812 9.542969 6.914062 L 9.542969 6.726562 C 11.164062 6.414062 12.011719 5.351562 12.011719 3.625 L 12.011719 3.570312 C 12.011719 1.21875 10.535156 0 7.652344 0 L 0 0 Z M 3.082031 5.96875 L 3.082031 2.0625 L 6.730469 2.0625 C 8.207031 2.0625 8.9375 2.707031 8.9375 3.976562 L 8.9375 4.019531 C 8.9375 5.3125 8.207031 5.96875 6.730469 5.96875 Z M 3.082031 12.507812 L 3.082031 7.863281 L 6.824219 7.863281 C 8.445312 7.863281 9.25 8.632812 9.25 10.144531 L 9.25 10.183594 C 9.25 11.726562 8.445312 12.507812 6.824219 12.507812 Z M 3.082031 12.507812 "/>
<path style=" stroke:none;fill-rule:nonzero;fill:rgb(100%,100%,100%);fill-opacity:1;" d="M 15.386719 0 L 15.386719 14.578125 L 18.429688 14.578125 L 18.429688 0 Z M 15.386719 0 "/>
<path style=" stroke:none;fill-rule:nonzero;fill:rgb(100%,100%,100%);fill-opacity:1;" d="M 24.792969 14.851562 C 27.25 14.851562 29.035156 13.757812 29.695312 11.902344 L 29.902344 11.953125 C 29.507812 13.976562 29.925781 14.851562 32.328125 14.851562 C 32.632812 14.851562 32.9375 14.820312 33.1875 14.777344 L 33.542969 12.976562 L 33.019531 12.964844 C 32.445312 12.953125 32.277344 12.820312 32.277344 12.078125 L 32.277344 7.070312 C 32.277344 4.59375 30.625 3.40625 27.101562 3.40625 C 23.359375 3.40625 21.46875 4.875 21.625 7.414062 L 24.625 7.664062 C 24.5 5.988281 25.355469 5.226562 27.039062 5.226562 C 28.546875 5.226562 29.257812 5.78125 29.257812 7.039062 L 29.257812 7.652344 L 26.289062 8.195312 C 23.320312 8.746094 21.351562 9.683594 21.351562 11.976562 L 21.351562 12.007812 C 21.351562 13.820312 22.585938 14.851562 24.792969 14.851562 Z M 26.003906 12.828125 C 24.980469 12.828125 24.425781 12.464844 24.425781 11.714844 L 24.425781 11.695312 C 24.425781 10.621094 25.398438 10.183594 27.320312 9.808594 L 29.257812 9.433594 L 29.257812 9.945312 C 29.257812 11.621094 27.742188 12.828125 26.003906 12.828125 Z M 26.003906 12.828125 "/>
<path style=" stroke:none;fill-rule:nonzero;fill:rgb(100%,100%,100%);fill-opacity:1;" d="M 36.101562 14.578125 L 39.144531 14.578125 L 39.144531 9.496094 C 39.144531 7.039062 40.304688 5.519531 42.226562 5.519531 C 43.660156 5.519531 44.371094 6.257812 44.371094 7.675781 L 44.371094 14.578125 L 47.414062 14.578125 L 47.414062 6.945312 C 47.414062 4.65625 46.0625 3.445312 43.554688 3.445312 C 41.277344 3.445312 39.71875 4.445312 38.796875 6.53125 L 38.589844 6.4375 C 39.007812 5.195312 39.152344 4.457031 39.152344 3.644531 L 36.101562 3.644531 Z M 36.101562 14.578125 "/>
<path style=" stroke:none;fill-rule:nonzero;fill:rgb(100%,100%,100%);fill-opacity:1;" d="M 56.464844 14.839844 C 60.050781 14.839844 62.054688 13.402344 62.359375 10.621094 L 59.285156 10.277344 C 59.160156 12.027344 58.199219 12.914062 56.472656 12.914062 C 54.539062 12.914062 53.535156 11.703125 53.535156 9.320312 L 53.535156 8.808594 C 53.535156 6.476562 54.550781 5.300781 56.441406 5.300781 C 58.1875 5.300781 59.097656 6.269531 59.234375 8.207031 L 62.265625 7.863281 C 62.023438 4.914062 60.089844 3.382812 56.453125 3.382812 C 52.5 3.382812 50.421875 5.3125 50.421875 8.996094 L 50.421875 9.132812 C 50.421875 12.882812 52.480469 14.839844 56.464844 14.839844 Z M 56.464844 14.839844 "/>
<path style=" stroke:none;fill-rule:nonzero;fill:rgb(100%,100%,100%);fill-opacity:1;" d="M 65.390625 14.578125 L 68.429688 14.578125 L 68.429688 9.496094 C 68.429688 7.039062 69.582031 5.53125 71.515625 5.53125 C 72.945312 5.53125 73.65625 6.257812 73.65625 7.675781 L 73.65625 14.578125 L 76.699219 14.578125 L 76.699219 6.945312 C 76.699219 4.65625 75.339844 3.445312 72.84375 3.445312 C 70.542969 3.445312 68.996094 4.445312 68.085938 6.519531 L 67.867188 6.4375 C 68.273438 5.269531 68.421875 4.40625 68.429688 3.375 L 68.429688 0 L 65.390625 0 Z M 65.390625 14.578125 "/>
<path style=" stroke:none;fill-rule:nonzero;fill:rgb(100%,100%,100%);fill-opacity:1;" d="M 83.011719 14.851562 C 85.46875 14.851562 87.257812 13.757812 87.914062 11.902344 L 88.125 11.953125 C 87.726562 13.976562 88.144531 14.851562 90.550781 14.851562 C 90.851562 14.851562 91.15625 14.820312 91.40625 14.777344 L 91.761719 12.976562 L 91.238281 12.964844 C 90.664062 12.953125 90.496094 12.820312 90.496094 12.078125 L 90.496094 7.070312 C 90.496094 4.59375 88.84375 3.40625 85.324219 3.40625 C 81.582031 3.40625 79.6875 4.875 79.84375 7.414062 L 82.84375 7.664062 C 82.71875 5.988281 83.578125 5.226562 85.257812 5.226562 C 86.765625 5.226562 87.476562 5.78125 87.476562 7.039062 L 87.476562 7.652344 L 84.507812 8.195312 C 81.539062 8.746094 79.574219 9.683594 79.574219 11.976562 L 79.574219 12.007812 C 79.574219 13.820312 80.804688 14.851562 83.011719 14.851562 Z M 84.226562 12.828125 C 83.199219 12.828125 82.644531 12.464844 82.644531 11.714844 L 82.644531 11.695312 C 82.644531 10.621094 83.617188 10.183594 85.542969 9.808594 L 87.476562 9.433594 L 87.476562 9.945312 C 87.476562 11.621094 85.960938 12.828125 84.226562 12.828125 Z M 84.226562 12.828125 "/>
<path style=" stroke:none;fill-rule:nonzero;fill:rgb(100%,100%,100%);fill-opacity:1;" d="M 94.320312 14.578125 L 97.363281 14.578125 L 97.363281 10.007812 C 97.363281 7.152344 98.25 6.101562 100.570312 5.9375 L 102.066406 5.820312 L 101.710938 3.300781 C 99.253906 3.488281 98.117188 4.257812 96.988281 6.53125 L 96.789062 6.4375 C 97.28125 4.976562 97.394531 4.394531 97.375 3.644531 L 94.320312 3.644531 Z M 94.320312 14.578125 "/>
<path style=" stroke:none;fill-rule:nonzero;fill:rgb(100%,100%,100%);fill-opacity:1;" d="M 108.789062 14.777344 C 111.042969 14.777344 112.519531 13.734375 113.261719 11.851562 L 113.480469 11.921875 C 113.125 13.070312 112.9375 13.976562 112.925781 14.578125 L 116 14.578125 L 116 0 L 112.957031 0 L 112.957031 2.96875 C 112.957031 4.113281 113.113281 5.039062 113.492188 6.300781 L 113.28125 6.382812 C 112.539062 4.507812 111.054688 3.425781 108.789062 3.425781 C 105.652344 3.425781 104 5.332031 104 8.976562 L 104 9.238281 C 104 12.871094 105.652344 14.777344 108.789062 14.777344 Z M 109.9375 12.902344 C 108.054688 12.902344 107.074219 11.703125 107.074219 9.339844 L 107.074219 8.863281 C 107.074219 6.488281 108.054688 5.28125 109.9375 5.28125 C 111.902344 5.28125 112.957031 6.550781 112.957031 8.914062 L 112.957031 9.289062 C 112.957031 11.640625 111.902344 12.902344 109.9375 12.902344 Z M 109.9375 12.902344 "/>
</g>
</svg>
